<svg aria-hidden="true" style="position: absolute; width: 0; height: 0; overflow: hidden;" version="1.1" xmlns="http://www.w3.org/2000/svg" xmlns:xlink="http://www.w3.org/1999/xlink">
	<defs>
		<symbol id="icon-chevron" viewBox="0 0 48 32">
			<path stroke-linejoin="round" stroke-linecap="round" stroke-miterlimit="4" stroke-width="5.3333" d="M42.667 6.667l-18.667 18.667-18.667-18.667"></path>
		</symbol>
		<symbol id="icon-favorite" viewBox="0 0 31 32">
			<path stroke-linejoin="miter" stroke-linecap="butt" stroke-miterlimit="4" stroke-width="1.4545" d="M15.515 27.706c-25.858-14.292-7.757-29.807 0-19.997 7.758-9.811 25.859 5.704 0 19.997z"></path>
		</symbol>
		<symbol id="icon-location" viewBox="0 0 27 32">
			<path stroke-linejoin="round" stroke-linecap="round" stroke-miterlimit="4" stroke-width="1.6" d="M25.6 13.382c0 9.164-12 17.018-12 17.018s-12-7.855-12-17.018c0-3.125 1.264-6.122 3.515-8.331s5.303-3.451 8.485-3.451c3.183 0 6.235 1.241 8.485 3.451s3.515 5.206 3.515 8.331z"></path>
			<path stroke-linejoin="round" stroke-linecap="round" stroke-miterlimit="4" stroke-width="1.6" d="M13.6 17.309c2.209 0 4-1.758 4-3.927s-1.791-3.927-4-3.927c-2.209 0-4 1.758-4 3.927s1.791 3.927 4 3.927z"></path>
		</symbol>
		<symbol id="icon-logo" viewBox="0 0 31 32">
			<path d="M30.327 4.696c-3.755 0-9.061 0.314-11.772 3.024-1.174 1.174-1.76 3.087-1.608 5.253 0.020 0.286 0.21 0.53 0.483 0.62 0.272 0.089 0.571 0.006 0.757-0.213 1.508-1.774 3.382-3.196 5.575-4.226 0.186-0.089 0.406-0.096 0.606-0.025 0.176 0.063 0.314 0.183 0.386 0.337 0.149 0.316 0.101 0.731-0.395 0.965-0.028 0.014-0.054 0.032-0.082 0.045-0.010 0.004-0.021 0.003-0.030 0.007-5.403 2.539-8.059 6.97-9.265 11.525-0.879-5.704-2.736-9.062-4.491-11.124-1.27-1.646-2.518-2.518-3.24-3.011-0.134-0.092-0.538-0.368-0.706-0.535-0.275-0.275-0.275-0.721 0-0.996 0.275-0.273 0.723-0.273 1.029 0.031 0.075 0.066 0.194 0.151 0.347 0.252l0.125 0.085c1.020 0.699 2.92 1.997 4.605 4.791 0.151 0.249 0.442 0.383 0.726 0.33 0.287-0.051 0.513-0.272 0.569-0.558 0.368-1.878 0.203-4.666-1.473-6.341-2.711-2.708-8.017-3.023-11.77-3.023-0.389-0-0.705 0.316-0.705 0.704 0 3.755 0.314 9.061 3.024 11.772 1.13 1.13 2.873 1.637 4.605 1.637 1.413 0 2.798-0.354 3.86-0.967 1.447 2.999 2.603 7.478 2.603 14.331 0 0.389 0.316 0.705 0.705 0.705s0.705-0.316 0.705-0.705c0-3.823 0.655-8.411 3.092-12.188 0.977 0.954 2.658 1.559 4.52 1.615 0.093 0.003 0.185 0.004 0.276 0.004 1.892 0 3.565-0.593 4.618-1.647 2.711-2.711 3.024-8.017 3.024-11.772 0.002-0.389-0.313-0.703-0.703-0.703z"></path>
		</symbol>
		<symbol id="icon-phone" viewBox="0 0 32 32">
			<path stroke-linejoin="round" stroke-linecap="round" stroke-miterlimit="4" stroke-width="1.7143" d="M19.927 5c1.695 0.456 3.241 1.349 4.482 2.591s2.135 2.787 2.591 4.482"></path>
			<path stroke-linejoin="round" stroke-linecap="round" stroke-miterlimit="4" stroke-width="1.7143" d="M18.892 8.865c1.017 0.274 1.944 0.81 2.689 1.554s1.281 1.672 1.554 2.689"></path>
			<path stroke-linejoin="round" stroke-linecap="round" stroke-miterlimit="4" stroke-width="1.7143" d="M11.56 15.602c1.037 2.121 2.756 3.832 4.881 4.86 0.156 0.074 0.328 0.106 0.499 0.092s0.337-0.071 0.48-0.167l3.13-2.086c0.138-0.092 0.297-0.149 0.463-0.164s0.332 0.011 0.485 0.076l5.855 2.51c0.199 0.084 0.365 0.231 0.473 0.418s0.153 0.404 0.127 0.619c-0.185 1.448-0.892 2.779-1.988 3.743s-2.506 1.497-3.965 1.497c-4.509 0-8.833-1.791-12.021-4.979s-4.979-7.512-4.979-12.021c0-1.46 0.532-2.869 1.497-3.965s2.295-1.802 3.743-1.987c0.215-0.026 0.432 0.019 0.619 0.127s0.334 0.274 0.418 0.473l2.512 5.86c0.065 0.151 0.091 0.316 0.076 0.48s-0.069 0.322-0.159 0.46l-2.080 3.178c-0.095 0.143-0.15 0.308-0.162 0.479s0.021 0.342 0.096 0.497v0z"></path>
		</symbol>
		<symbol id="icon-search" viewBox="0 0 30 32">
			<path stroke-linejoin="round" stroke-linecap="round" stroke-miterlimit="4" stroke-width="2.2857" d="M13.968 24.889c5.611 0 10.159-4.548 10.159-10.159s-4.548-10.159-10.159-10.159c-5.611 0-10.159 4.548-10.159 10.159s4.548 10.159 10.159 10.159z"></path>
			<path stroke-linejoin="round" stroke-linecap="round" stroke-miterlimit="4" stroke-width="2.2857" d="M26.666 27.429l-5.524-5.524"></path>
		</symbol>
		<symbol id="icon-bag" viewBox="0 0 31 32">
			<path stroke-linejoin="round" stroke-linecap="round" stroke-miterlimit="4" stroke-width="1.3714" d="M10.362 13.41h-3.886l-2.59 14.248h23.314l-2.59-14.248h-3.886M10.362 13.41v-3.886c0-2.861 2.32-5.181 5.181-5.181v0c2.861 0 5.181 2.32 5.181 5.181v3.886M10.362 13.41h10.362M10.362 13.41v3.886M20.724 13.41v3.886"></path>
		</symbol>
	</defs>
</svg>
